<?xml version="1.0" encoding="utf-8"?>
<!-- Generator: Adobe Illustrator 21.1.0, SVG Export Plug-In . SVG Version: 6.00 Build 0)  -->
<svg version="1.1" id="Layer_1" xmlns="http://www.w3.org/2000/svg" xmlns:xlink="http://www.w3.org/1999/xlink" x="0px" y="0px"
	 viewBox="0 0 17.3 17.3" enable-background="new 0 0 17.3 17.3" xml:space="preserve">
<g>
	<path fill="#00AEEF" d="M8.6,0C3.9,0,0,3.9,0,8.6c0,4.8,3.9,8.6,8.6,8.6s8.6-3.9,8.6-8.6C17.3,3.9,13.4,0,8.6,0z M8.6,16.3
		C4.4,16.3,1,12.9,1,8.6C1,4.4,4.4,1,8.6,1c4.2,0,7.6,3.4,7.6,7.6C16.3,12.9,12.9,16.3,8.6,16.3z"/>
	<path fill="#00AEEF" d="M12.9,4.2L3.2,8c-0.3,0.1-0.3,0.6,0,0.7l2.5,0.7l0.9,2.9c0.1,0.3,0.5,0.4,0.7,0.2l1.3-1.3l2.5,1.8
		c0.3,0.2,0.7,0.1,0.8-0.3l1.7-8C13.7,4.4,13.3,4,12.9,4.2z M11.7,6l-4.5,4c0,0-0.1,0.1-0.1,0.2l-0.2,1.5c0,0.1-0.1,0.1-0.1,0
		L6.1,9.4c0-0.1,0-0.2,0.1-0.3l5.3-3.3C11.7,5.7,11.8,5.9,11.7,6z"/>
</g>
</svg>
