<?xml version="1.0" encoding="utf-8"?>
<!-- Generator: Adobe Illustrator 21.1.0, SVG Export Plug-In . SVG Version: 6.00 Build 0)  -->
<svg version="1.1" id="Layer_1" xmlns="http://www.w3.org/2000/svg" xmlns:xlink="http://www.w3.org/1999/xlink" x="0px" y="0px"
	 viewBox="0 0 739.7 609.6" style="enable-background:new 0 0 739.7 609.6;" xml:space="preserve">
<style type="text/css">
	.st0{opacity:0.2;fill:#3BA9C5;}
	.st1{opacity:0.1;fill:#3BA9C5;}
	.st2{fill:#3BA9C5;}
</style>
<circle class="st0" cx="660.2" cy="530.1" r="79.5"/>
<circle class="st1" cx="218.3" cy="218.3" r="218.3"/>
<path class="st2" d="M598.5,479.2l-8.4-3.4c42.3-47.1,65.5-107.5,65.5-171c0-52-15.7-102-44.3-144c-0.3-0.7-0.8-1.3-1.3-1.8
	c-12.5-18.1-27.5-34.7-44.6-49.2c-3.4-2.9-8.5-2.5-11.4,0.9c-2.9,3.4-2.5,8.5,0.9,11.4c13.7,11.7,26,24.8,36.6,38.9
	c-17.1,6.7-37.7,12.4-60.6,16.8c-6.3-18.9-14.1-36.4-23.3-52.3c-12.3-21.4-26.5-38.6-42-51.3c24.1,6.9,47,17.5,68,31.7
	c3.7,2.5,8.7,1.5,11.2-2.2c2.5-3.7,1.5-8.7-2.2-11.2c-42.3-28.6-91.8-43.7-143.1-43.7c-68.4,0-132.7,26.6-181,75
	c-48.4,48.4-75,112.6-75,181c0,63.6,23.3,124.1,65.6,171.1l-8.3,3.3c-3.1,1.1-29.1,11.5-29.1,44.6v29c0,4.5,3.6,8.1,8.1,8.1h46.5
	h7.2h8.6h41.4h15.3c0.4,0,0.8,0,1.1-0.1c0.4,0.1,0.8,0.1,1.1,0.1h32.9c4.5,0,8.1-3.6,8.1-8.1s-3.6-8.1-8.1-8.1h-24.8v-28.2
	c0-29.7,23.3-38.2,24.3-38.6c0.1,0,0.2-0.1,0.4-0.1l39.4-15.4c0.1,0.1,0.2,0.2,0.3,0.3l20.9,20.4c1.5,1.5,3.5,2.3,5.6,2.3
	c0,0,0.1,0,0.1,0c2.2,0,4.2-0.9,5.7-2.5L426,462l39.3,15.8c0.1,0.1,0.2,0.1,0.4,0.1c1,0.3,24.3,8.9,24.3,38.6v28.2h-59.1h-62.5h-9.1
	c-4.5,0-8.1,3.6-8.1,8.1c0,4.5,3.6,8.1,8.1,8.1h9.1h62.5h67.2h0h0h10.3h7.2h8.6h41.4h53.7c4.5,0,8.1-3.7,8.1-8.1v-28.9
	C627.5,490.8,601.7,480.4,598.5,479.2z M566,466.2v-4.6c8.8-5.2,15.6-13.4,18.8-23.3c11.8-0.9,21.1-10.8,21.1-22.8
	c0-7.1-3.3-13.5-8.4-17.7v-14.4c0-27.7-20.8-50.6-47.6-54c0.3-5.5,0.5-11,0.6-16.5h88.8c-1.9,58.5-24.9,113.8-65.3,156.5L566,466.2z
	 M492.3,415.5c0-2.4,1.2-4.4,3.1-5.6v11.3C493.5,419.9,492.3,417.9,492.3,415.5z M404.8,427.8h-9.2c-19,0-34.4-15.4-34.4-34.4v-28.5
	c12.9-1.2,38.4-5.7,57-22.4c3.9,7.4,10.5,16.1,21,20.6v30.4C439.3,412.3,423.8,427.8,404.8,427.8z M337.1,381.1
	c0-4.9,3.4-9,7.9-10.1v20.2C340.5,390.1,337.1,386,337.1,381.1z M347.7,296.7h-82.9c0.7-35.5,5.7-69.6,14.6-100.6
	c34.2,5.7,72.5,9,112.1,9.4v69.6c-16.9,1.6-32.1,9.6-42.9,21.6C348.3,296.7,348.1,296.7,347.7,296.7z M250.4,467
	c1.7,0.2,3.3,0.3,5.1,0.3h7.4c1.7,0,3.4-0.1,5-0.3v4.5l-9,9.3l-8.5-8.2L250.4,467L250.4,467L250.4,467z M262.8,451.2h-7.4
	c-14.3,0-25.9-11.6-25.9-25.9v-21.4c10.5-1.1,29.2-4.8,43.6-16.8c3.2,5.5,8.2,11.5,15.6,15v23.2
	C288.7,439.6,277.1,451.2,262.8,451.2z M210.3,415.5c0-2.4,1.2-4.4,3.1-5.6v11.3C211.5,419.9,210.3,417.9,210.3,415.5z M304.9,410.1
	c1.7,1.2,2.8,3.2,2.8,5.5c0,2.2-1.1,4.2-2.8,5.4V410.1z M299.3,388.6c-0.2-0.1-0.3-0.1-0.5-0.1c-0.1,0-0.1,0-0.2-0.1
	c-11.3-2.6-15-17.6-15-17.7c-0.7-3.1-3.2-5.5-6.3-6.1c-3.1-0.6-6.3,0.6-8.2,3.2c-14.7,20.2-47.3,20.5-47.7,20.5c0,0,0,0,0,0
	c-0.3,0-0.6,0-0.8,0c-0.1,0-0.2,0-0.3,0c-0.2,0-0.4,0-0.5,0.1c-0.1,0-0.2,0.1-0.3,0.1c-0.1,0-0.3,0.1-0.4,0.1
	c-0.1,0-0.2,0.1-0.3,0.1v-5.3c0-21.1,17.2-38.3,38.3-38.3h3.9c21.1,0,38.3,17.2,38.3,38.3L299.3,388.6L299.3,388.6z M159.9,296.7
	c1.5-44.9,15.4-86.7,38.4-122.1c18.2,7.4,40.4,13.7,65.2,18.7c-9.1,32-14.2,67.1-14.8,103.5H159.9z M452.5,341v9.9
	c-0.1,0-0.1-0.1-0.2-0.1c-0.1-0.1-0.2-0.2-0.4-0.3c-0.1-0.1-0.2-0.1-0.3-0.2c-0.1-0.1-0.2-0.2-0.4-0.2c-0.1-0.1-0.2-0.1-0.4-0.2
	c-0.1-0.1-0.2-0.1-0.3-0.2c-0.1-0.1-0.3-0.1-0.4-0.2c-0.1,0-0.2-0.1-0.3-0.1c-0.2-0.1-0.3-0.1-0.5-0.1c-0.1,0-0.1,0-0.2-0.1
	c-15.4-3.5-20.2-23.5-20.3-23.7c-0.7-3.1-3.2-5.5-6.3-6.1c-3.1-0.6-6.3,0.6-8.2,3.2c-18.9,26.2-60.8,26.4-61.3,26.4c0,0,0,0,0,0
	c0,0,0,0,0,0c-0.3,0-0.6,0-0.8,0c-0.1,0-0.2,0-0.3,0c-0.2,0-0.4,0-0.5,0.1c-0.1,0-0.2,0.1-0.3,0.1c-0.1,0-0.3,0.1-0.4,0.1
	c-0.1,0-0.3,0.1-0.4,0.1c-0.1,0-0.2,0.1-0.4,0.1c-0.1,0.1-0.3,0.1-0.4,0.2c-0.1,0-0.2,0.1-0.3,0.1c-0.1,0.1-0.3,0.2-0.4,0.3
	c-0.1,0.1-0.2,0.1-0.2,0.1c-0.1,0.1-0.3,0.2-0.4,0.3c-0.1,0.1-0.2,0.1-0.2,0.2c-0.1,0.1-0.1,0.1-0.2,0.2V341
	c0-27.5,22.4-49.9,49.9-49.9h4.8C430.1,291.1,452.5,313.5,452.5,341z M391.5,65.4v124c-37.9-0.4-74.5-3.5-107.1-8.8
	c5.8-17,12.9-32.8,21.2-47.1C329.1,92.7,359.3,68.8,391.5,65.4z M455.4,371.1c4.4,1.2,7.6,5.2,7.6,10c0,4.8-3.2,8.8-7.6,10V371.1z
	 M451.6,296.7c-11-12.2-26.5-20.2-43.9-21.6v-69.5c39.7-0.4,78-3.7,112.1-9.4c8.9,30.9,13.9,65,14.6,100.5H451.6
	C451.6,296.7,451.6,296.7,451.6,296.7z M539.1,345.1h3.9c21.1,0,38.3,17.2,38.3,38.3v5.2c-0.2,0-0.3-0.1-0.5-0.1
	c-0.1,0-0.1,0-0.2-0.1c-11.3-2.6-15-17.6-15-17.7c-0.7-3.1-3.2-5.5-6.3-6.1c-3.1-0.6-6.3,0.6-8.2,3.2
	c-14.6,20.2-47.3,20.5-47.7,20.5c0,0,0,0,0,0c-0.3,0-0.6,0-0.8,0c-0.1,0-0.2,0-0.3,0c-0.2,0-0.4,0-0.5,0.1c-0.1,0-0.2,0.1-0.4,0.1
	c-0.1,0-0.3,0.1-0.4,0.1c-0.1,0-0.2,0.1-0.3,0.1v-5.3C500.8,362.3,518,345.1,539.1,345.1z M586.9,410.1c1.7,1.2,2.8,3.2,2.8,5.4
	s-1.1,4.2-2.8,5.4V410.1z M511.6,403.9c10.5-1.1,29.2-4.8,43.6-16.8c3.2,5.5,8.2,11.5,15.6,15v23.2c0,14.3-11.6,25.9-25.9,25.9h-7.4
	c-14.3,0-25.9-11.6-25.9-25.9V403.9L511.6,403.9z M532.4,467c1.7,0.2,3.3,0.3,5,0.3h7.4c1.7,0,3.4-0.1,5-0.3v4.5l-9,9.3l-8.5-8.2
	V467z M601,174.5c23.4,36.2,36.8,78.3,38.3,122.2h-88.8c-0.7-36.4-5.7-71.5-14.8-103.4C560.5,188.3,582.7,182,601,174.5z
	 M493.6,133.5c8.3,14.3,15.3,30.1,21.2,47.1c-32.6,5.3-69.2,8.4-107.2,8.8v-124C439.8,68.8,470.1,92.7,493.6,133.5z M333.4,74.3
	c-15.4,12.7-29.6,29.9-41.9,51.2c-9.1,15.9-16.9,33.4-23.2,52.3c-22.9-4.5-43.4-10.1-60.5-16.8C238.8,119.8,282.7,88.8,333.4,74.3z
	 M159.9,312.9h88.8c0.1,5.6,0.3,11.1,0.6,16.6c-26.4,3.8-46.7,26.5-46.7,53.9v14.3c-5.2,4.2-8.5,10.6-8.5,17.8
	c0,12.1,9.4,22,21.3,22.8c3.2,9.9,10,18.1,18.8,23.3v4.6l-8.8,3.5C184.9,426.8,161.9,371.5,159.9,312.9z M242.3,544.6h-8.6h-7.2H188
	v-20.9c0-22.5,17.6-29.1,18.3-29.3c0.1,0,0.3-0.1,0.4-0.1l30.5-11.9l16.2,15.8c1.5,1.5,3.5,2.3,5.6,2.3c0,0,0.1,0,0.1,0
	c2.2,0,4.2-0.9,5.7-2.5l15.3-15.9l18.9,7.6c-3.6,7.3-5.9,16.2-5.9,26.8v28.2h-9.5L242.3,544.6L242.3,544.6z M328.2,462.6
	c-5.5,1.9-13,6.2-19.7,13.4l-24.5-9.8v-4.6c8.8-5.2,15.6-13.4,18.8-23.3c11.8-0.9,21.1-10.8,21.1-22.8c0-7.1-3.3-13.5-8.4-17.7
	v-14.4c0-28.5-22-52-50-54.3c-0.3-5.4-0.5-10.8-0.6-16.3h73.1c-4,8.5-6.3,18.1-6.3,28.1v18.9c-6.5,4.9-10.6,12.6-10.6,21.3
	c0,14.5,11.7,26.3,26.2,26.6c3.8,12.8,12.5,23.5,24,29.9v8.2L328.2,462.6z M399.9,465.7l-12.7-12.3v-10.2c2.7,0.5,5.5,0.7,8.3,0.7
	h9.2c2.8,0,5.6-0.2,8.3-0.7v8.2c0,0,0,0,0,0v0.5L399.9,465.7z M471.2,462.6l-41.8-16.8v-8.3c11.5-6.4,20.2-17.1,24-29.9
	c14.3-0.4,25.8-12.1,25.8-26.5c0-8.6-4.1-16.3-10.5-21.2V341c0-10.1-2.3-19.6-6.3-28.1h72c-0.1,5.5-0.3,10.9-0.6,16.4
	c-27.5,2.7-49.1,26-49.1,54.2v14.3c-5.2,4.2-8.5,10.6-8.5,17.8c0,12.1,9.4,22,21.3,22.8c3.2,9.9,10,18.1,18.8,23.3v4.6l-25.3,9.9
	C484.2,468.9,476.6,464.5,471.2,462.6z M611.3,544.6h-45.7h-41.4h-8.6h-7.2h-2.2v-28.2c0-10.6-2.3-19.4-5.9-26.7l18.9-7.4l16.2,15.8
	c1.5,1.5,3.5,2.3,5.6,2.3c0,0,0.1,0,0.1,0c2.2,0,4.2-0.9,5.7-2.5l15.3-15.9l30.4,12.2c0.1,0.1,0.2,0.1,0.4,0.1
	c0.8,0.3,18.4,6.8,18.4,29.3L611.3,544.6L611.3,544.6z"/>
</svg>
