<?xml version="1.0" encoding="utf-8"?>
<!-- Generator: Adobe Illustrator 21.1.0, SVG Export Plug-In . SVG Version: 6.00 Build 0)  -->
<svg version="1.1" id="Capa_1" xmlns="http://www.w3.org/2000/svg" xmlns:xlink="http://www.w3.org/1999/xlink" x="0px" y="0px"
	 viewBox="0 0 742.1 611.6" style="enable-background:new 0 0 742.1 611.6;" xml:space="preserve">
<style type="text/css">
	.st0{opacity:0.2;fill:#3BA9C5;}
	.st1{opacity:0.1;fill:#3BA9C5;}
	.st2{fill:#3BA9C5;}
</style>
<circle class="st0" cx="662.6" cy="532.1" r="79.5"/>
<circle class="st1" cx="220.7" cy="220.3" r="218.3"/>
<path class="st2" d="M552.9,159.8l31,31L563.2,226c-1.2,2.1-1.5,4.6-0.6,6.9l8.9,23.4l15-5.7l-7.5-19.8l22-37.3
	c1.9-3.1,1.4-7.1-1.2-9.7l-40-40c-2.7-2.7-6.9-3.1-10-1l-44.4,29.1l-47.9-20l-7.4-51.5c-0.6-3.9-3.9-6.9-7.9-6.9h-64
	c-4,0-7.4,2.9-7.9,6.9l-7.4,51.5l-47.9,20l-44.5-29.1c-3.2-2.1-7.4-1.6-10,1l-40,40c-2.7,2.7-3.1,6.9-1,10.1l29.6,45l-5,11.5
	l14.7,6.4l6.7-15.4c1.1-2.5,0.8-5.3-0.7-7.6l-28.4-43.1l30.8-30.8l42.6,27.9c2.2,1.4,5,1.7,7.5,0.7l56-23.4c2.6-1.1,4.4-3.5,4.8-6.2
	l7-49.1h50.1l7,49.1c0.4,2.8,2.2,5.2,4.8,6.2l56,23.4c2.5,1,5.2,0.8,7.5-0.7L552.9,159.8z"/>
<path class="st2" d="M322,405.5v160c0,4.4,3.6,8,8,8h160c4.4,0,8-3.6,8-8v-160c0-2.1-0.8-4.2-2.3-5.7l-24-24
	c-1.5-1.5-3.5-2.3-5.7-2.3H354c-2.1,0-4.2,0.8-5.7,2.3l-24,24C322.8,401.3,322,403.4,322,405.5z M395.1,557.5l14.8-110.9
	c0-0.3,0.1-0.7,0.1-1c0,0.5,0.1,1,0.2,1.5l22.1,110.4H395.1z M410,394.2l-4.7-4.7h9.4L410,394.2z M410,416.8l12.7,12.7l-10.3,10.3
	c-1.5,1.5-2.3,3.5-2.3,5.7c0-2.1-0.9-4.1-2.3-5.6l-10.3-10.4L410,416.8z M482,557.5h-33.4l-21.9-109.4l13-13l34.3-34.3l8,8V557.5z
	 M434,418.2l-12.7-12.7l16-16h25.4L434,418.2z M382.7,389.5l16,16L386,418.2l-28.7-28.7H382.7z M338,408.8l8-8l34.3,34.3l13.2,13.2
	L379,557.5h-41V408.8z"/>
<path class="st2" d="M410,357.5c35.3,0,64-28.7,64-64v-88c0-4.4-3.6-8-8-8h-72c-26.5,0-48,21.5-48,48v48
	C346,328.8,374.7,357.5,410,357.5z M394,213.5h64c0,17.7-14.3,32-32,32h-64C362,227.8,376.3,213.5,394,213.5z M362,261.5h64
	c11.8,0,23.2-4.4,32-12.3v44.3c0,26.5-21.5,48-48,48s-48-21.5-48-48V261.5z"/>
<path class="st2" d="M522,437.5v128c0,4.4,3.6,8,8,8h112c4.4,0,8-3.6,8-8v-128c0-2.1-0.8-4.2-2.3-5.7l-24-24
	c-1.5-1.5-3.5-2.3-5.7-2.3h-64c-2.1,0-4.2,0.8-5.7,2.3l-24,24C522.8,433.3,522,435.4,522,437.5z M538,440.8l16-16l18.3,18.3l5.7-5.7
	l5.7-5.7l-10.3-10.3h26l-10.8,10.2l5.5,5.8l5.5,5.8l19.1-18l15.4,15.4v116.7h-40v-120h-16v120h-40V440.8z"/>
<path class="st2" d="M578.3,269.5c-22,0-39.9,17.8-40,39.9l-0.1,40.1c-0.1,26.5,21.3,48,47.8,48.1c0.1,0,0.1,0,0.2,0l0,0
	c26.5,0,47.9-21.5,47.9-47.9v-40.1c0-22.1-17.9-40-40-40H578.3z M578,285.5c0,13.2-10.6,23.9-23.7,24v-0.1
	C554.3,296.3,564.9,285.6,578,285.5z M618,349.6c0,17.6-14.3,31.9-31.9,31.9l0,0c-17.6,0-31.9-14.3-31.9-31.9c0,0,0-0.1,0-0.1
	l0.1-24c12.5-0.1,24.3-6,31.8-16c7.6,10.1,19.4,16,32,16V349.6L618,349.6z M618,309.5c-13.3,0-24-10.7-24-24
	C607.3,285.5,618,296.2,618,309.5z"/>
<path class="st2" d="M298,565.5v-128c0-2.1-0.8-4.2-2.3-5.7l-24-24c-1.5-1.5-3.5-2.3-5.7-2.3h-64c-2.1,0-4.2,0.8-5.7,2.3l-24,24
	c-1.5,1.5-2.3,3.5-2.3,5.7v128c0,4.4,3.6,8,8,8h112C294.4,573.5,298,569.9,298,565.5z M282,557.5h-40v-120h-16v120h-40V440.8l16-16
	l18.3,18.3l5.7-5.7l5.7-5.7l-10.3-10.3h26l-10.8,10.2l5.5,5.8l5.5,5.8l19.1-18l15.4,15.4V557.5z"/>
<path class="st2" d="M186.1,349.4c-0.1,26.5,21.3,48,47.8,48.1c0.1,0,0.1,0,0.2,0l0,0c26.5,0,47.9-21.5,47.9-47.9v-40.1
	c0-22.1-17.9-40-40-40h-15.7c-22,0-39.9,17.8-40,39.9L186.1,349.4z M234.1,381.5L234.1,381.5c-17.6,0-31.9-14.3-31.9-31.9
	c0,0,0-0.1,0-0.1l0.1-32.1c6.3,0,12.3-2.5,16.7-7c1.3-1.3,2.4-2.7,3.3-4.2c7.4,7.2,17.4,11.2,27.7,11.3h16v32.1
	C266,367.2,251.7,381.5,234.1,381.5z M264.5,301.5H250c-10.1,0-19.1-6.4-22.5-16H242C252.1,285.5,261.1,291.9,264.5,301.5z M210,292
	v1.5c0,2.1-0.8,4.2-2.4,5.7c-1,1-2.3,1.7-3.8,2C205.2,297.6,207.3,294.5,210,292z"/>
</svg>
