<?xml version="1.0" encoding="utf-8"?>
<!-- Generator: Adobe Illustrator 21.1.0, SVG Export Plug-In . SVG Version: 6.00 Build 0)  -->
<svg version="1.1" id="Layer_1" xmlns="http://www.w3.org/2000/svg" xmlns:xlink="http://www.w3.org/1999/xlink" x="0px" y="0px"
	 viewBox="0 0 512 512" style="enable-background:new 0 0 512 512;" xml:space="preserve">
<style type="text/css">
	.st0{fill:#747474;}
	.st1{fill:#E5E5E5;}
	.st2{fill:#FFFFFF;}
	.st3{fill:#646464;}
</style>
<path class="st0" d="M437,75C388.7,26.6,324.4,0,256,0S123.3,26.6,75,75S0,187.6,0,256c0,51.5,15.2,100.9,43.9,143.3L0.7,500.1
	c-1.3,3.1-0.6,7,1.8,9.4c2.5,2.5,6.5,3.2,9.7,1.7l96.4-45.9C151.9,495.9,202.7,512,256,512c68.4,0,132.7-26.6,181-75
	c48.4-48.4,75-112.6,75-181S485.4,123.3,437,75z"/>
<circle class="st1" cx="256" cy="256" r="213.3"/>
<circle class="st2" cx="256" cy="256" r="187.7"/>
<path class="st0" d="M392.4,342.6l-7.7-41.6c-0.6-3.4-3.3-6.1-6.7-6.8l-60.3-12.1c-2.8-0.6-5.7,0.3-7.7,2.3L285.4,309
	c-41.3-18.5-64.2-41.5-84.4-84.6l24.4-24.4c2-2,2.9-4.9,2.3-7.7L215.7,132c-0.7-3.4-3.4-6.1-6.8-6.7l-41.6-7.7
	c-1.1-0.2-2.3-0.2-3.4,0.1c-11,2.5-21,8-29,16c-13.8,13.8-19.1,33.9-15.3,58.2c6.4,40.8,26.4,97.6,63.3,134.6l0.5,0.5
	c37,36.9,93.8,56.8,134.6,63.3c5.1,0.8,10.1,1.2,14.8,1.2c17.7,0,32.5-5.6,43.4-16.5c8-8,13.5-18,16-29
	C392.6,345,392.6,343.8,392.4,342.6z"/>
<path class="st3" d="M350,376.4c-4.7,0-9.7-0.4-14.8-1.2c-40.8-6.4-97.6-26.4-134.6-63.3l-0.5-0.5c-36.9-37-56.9-93.8-63.3-134.6
	c-3.3-21.1,0.2-39.1,10.3-52.5c-4.4,2.6-8.5,5.7-12.1,9.3c-13.8,13.8-19.1,33.9-15.3,58.2c6.4,40.8,26.4,97.6,63.3,134.6l0.5,0.5
	c37,36.9,93.8,56.8,134.6,63.3c5.1,0.8,10.1,1.2,14.8,1.2c17.7,0,32.5-5.6,43.4-16.5c2-2,3.8-4.1,5.5-6.3
	C372.7,373.8,362,376.4,350,376.4z"/>
</svg>
