<svg xmlns="http://www.w3.org/2000/svg" viewBox="-49 141 512 512">
    <path fill="#20a83e" d="M388.019 215.98C339.668 167.628 275.38 141 207 141S74.333 167.628 25.98 215.98-49 328.62-49 397c0 51.485 15.154 100.938 43.874 143.34L-48.31 641.106c-1.343 3.134-.607 6.966 1.798 9.381 2.495 2.506 6.519 3.206 9.714 1.684l96.358-45.885C102.858 636.866 153.721 653 207 653c68.38 0 132.668-26.628 181.019-74.98C436.371 529.667 463 465.38 463 397s-26.629-132.667-74.981-181.02z"/>
    <circle cx="207" cy="397" r="213.333" fill="#e5e5e5"/>
    <circle cx="207" cy="397" r="187.733" fill="#fff"/>
    <path fill="#20a83e" d="M343.391 483.641l-7.673-41.561a8.536 8.536 0 0 0-6.718-6.818l-60.339-12.067a8.536 8.536 0 0 0-7.709 2.334l-24.514 24.514c-41.302-18.507-64.226-41.478-84.396-84.555l24.435-24.436a8.534 8.534 0 0 0 2.334-7.708l-12.068-60.34a8.535 8.535 0 0 0-6.819-6.718l-41.561-7.673a8.536 8.536 0 0 0-3.44.07 59.558 59.558 0 0 0-28.956 15.994c-13.801 13.801-19.075 33.938-15.252 58.237 6.418 40.801 26.409 97.583 63.289 134.61l.502.5c37.001 36.855 93.782 56.846 134.583 63.265 5.14.809 10.092 1.21 14.838 1.21 17.694 0 32.517-5.581 43.4-16.462a59.573 59.573 0 0 0 15.993-28.957c.258-1.129.282-2.3.071-3.439z"/>
    <path fill="#189433" d="M300.996 517.428c-4.747 0-9.698-.401-14.838-1.21-40.801-6.419-97.583-26.41-134.583-63.265l-.502-.5c-36.88-37.027-56.87-93.809-63.289-134.61-3.323-21.118.236-39.088 10.283-52.492a59.717 59.717 0 0 0-12.097 9.328c-13.801 13.801-19.075 33.938-15.252 58.237 6.418 40.801 26.409 97.583 63.289 134.61l.502.5c37.001 36.855 93.782 56.846 134.583 63.265 5.14.808 10.092 1.21 14.838 1.21 17.694 0 32.517-5.581 43.4-16.462a59.849 59.849 0 0 0 5.463-6.284c-9.046 5.081-19.756 7.673-31.797 7.673z"/>
</svg>
