<svg xmlns="http://www.w3.org/2000/svg" viewBox="-49 141 512 512">
    <circle cx="207" cy="397" r="256" fill="#47b0d3"/>
    <path fill="#3298ba" d="M-14.867 397c0-135.648 105.508-246.636 238.933-255.421A259.94 259.94 0 0 0 207 141C65.615 141-49 255.615-49 397S65.615 653 207 653c5.737 0 11.424-.208 17.067-.579C90.642 643.636-14.867 532.648-14.867 397z"/>
    <path fill="#e5e5e5" d="M331.263 250.054a8.535 8.535 0 0 0-8.399-.679L47.777 377.433a13.472 13.472 0 0 0-7.766 12.501c.117 5.226 3.28 9.92 8.065 12.015l253.613 110.457c8.468 3.849 18.439-2.21 18.983-11.453l14.314-243.341a8.536 8.536 0 0 0-3.723-7.558z"/>
    <path fill="#ccc" d="M122.631 434.421L139.772 549l190.396-299.568z"/>
    <path fill="#fff" d="M322.866 249.375L47.777 377.433c-4.737 2.205-7.826 7.121-7.769 12.345.058 5.233 3.276 10.074 8.067 12.171l74.557 32.471 207.536-184.988a8.525 8.525 0 0 0-7.302-.057z"/>
    <path fill="#e5e5e5" d="M162.418 451.749L139.772 549l190.396-299.568z"/>
    <path fill="#fff" d="M331.263 250.054a8.382 8.382 0 0 0-1.095-.622l-167.75 202.317 139.27 60.657c8.468 3.849 18.439-2.21 18.983-11.453l14.314-243.341a8.533 8.533 0 0 0-3.722-7.558z"/>
</svg>
