<?xml version="1.0" encoding="utf-8"?>
<!-- Generator: Adobe Illustrator 21.1.0, SVG Export Plug-In . SVG Version: 6.00 Build 0)  -->
<svg version="1.1" id="Layer_1" xmlns="http://www.w3.org/2000/svg" xmlns:xlink="http://www.w3.org/1999/xlink" x="0px" y="0px"
	 viewBox="0 0 1366 768" style="enable-background:new 0 0 1366 768;" xml:space="preserve">
<style type="text/css">
	.st0{fill:#828282;}
	.st1{fill:#FFFFFF;}
</style>
<g>
	<path class="st0" d="M792.3,409.3c1.7-7.6,2.6-15.4,2.6-23.5c0-60.5-49.8-109.6-111.2-109.6c-6.5,0-12.8,0.6-19,1.6
		c-9.9-6.2-21.7-9.8-34.3-9.8c-35.6,0-64.5,28.5-64.5,63.6c0,11.7,3.2,22.7,8.9,32.2c-1.5,7.1-2.3,14.5-2.3,22
		c0,60.6,49.8,107.8,111.1,107.8c7,0,13.8-0.6,20.4-1.8c9.1,4.8,19.5,9.4,30.5,9.4c35.6,0,64.5-28.5,64.5-63.6
		C799,427.4,796.6,417.8,792.3,409.3L792.3,409.3z"/>
	<path class="st1" d="M734.5,430.5c-4.3,6.1-10.6,10.9-18.8,14.3c-8.3,3.5-18.1,5.2-29.4,5.2c-13.6,0-24.8-2.4-33.6-7.1
		c-6.3-3.4-11.3-7.9-15.3-13.6c-3.9-5.7-5.9-11.2-5.9-16.6c0-3.1,1.2-5.8,3.5-8c2.3-2.2,5.3-3.3,9-3.3c2.9,0,5.4,0.9,7.5,2.6
		c2,1.7,3.8,4.3,5.2,7.7c1.8,4,3.6,7.4,5.7,10.1c2,2.7,4.9,4.9,8.6,6.7c3.7,1.7,8.6,2.6,14.6,2.6c8.3,0,15-1.8,20.1-5.3
		c5.2-3.5,7.8-8,7.8-13.3c0-4.2-1.4-7.6-4.2-10.2c-2.8-2.6-6.4-4.6-10.8-6c-4.4-1.4-10.3-2.9-17.7-4.4c-9.9-2.1-18.2-4.6-24.8-7.5
		c-6.7-2.9-12-6.7-15.9-11.7c-3.9-4.9-5.9-11.1-5.9-18.4c0-7,2.1-13.2,6.2-18.6c4.1-5.4,10.1-9.6,17.9-12.5c7.8-2.9,17-4.4,27.6-4.4
		c8.4,0,15.8,1,21.9,2.9c6.2,1.9,11.3,4.5,15.3,7.7c4.1,3.2,7.1,6.5,8.9,10.1c1.9,3.5,2.8,6.9,2.8,10.3c0,3.1-1.2,5.8-3.5,8.3
		c-2.3,2.4-5.3,3.7-8.8,3.7c-3.2,0-5.6-0.7-7.3-2.2c-1.7-1.5-3.5-3.9-5.4-7.2c-2.5-4.8-5.5-8.5-9-11.2c-3.5-2.7-9.1-4-16.9-4
		c-7.2,0-13,1.4-17.4,4.4c-4.4,2.9-6.6,6.4-6.6,10.5c0,2.5,0.8,4.7,2.3,6.6c1.5,1.9,3.6,3.4,6.2,4.7c2.6,1.3,5.3,2.4,8,3.1
		c2.7,0.8,7.1,1.8,13.3,3.3c7.8,1.7,14.8,3.5,21.1,5.5c6.3,2,11.6,4.5,16.1,7.3c4.4,2.9,7.9,6.5,10.3,11c2.5,4.4,3.7,9.8,3.7,16.2
		C740.9,417.5,738.7,424.4,734.5,430.5L734.5,430.5z"/>
</g>
</svg>
