<?xml version="1.0" encoding="utf-8"?>
<!-- Generator: Adobe Illustrator 21.1.0, SVG Export Plug-In . SVG Version: 6.00 Build 0)  -->
<svg version="1.1" id="Capa_1" xmlns="http://www.w3.org/2000/svg" xmlns:xlink="http://www.w3.org/1999/xlink" x="0px" y="0px"
	 viewBox="0 0 741.7 628.5" style="enable-background:new 0 0 741.7 628.5;" xml:space="preserve">
<style type="text/css">
	.st0{opacity:0.2;fill:#3BA9C5;}
	.st1{opacity:0.1;fill:#3BA9C5;}
	.st2{fill:#3BA9C5;}
</style>
<circle class="st0" cx="79.5" cy="549" r="79.5"/>
<circle class="st1" cx="523.4" cy="218.3" r="218.3"/>
<path class="st2" d="M307.8,546.1c35.4,0,69.2-7.6,100.8-22.5C423.3,539.2,444,549,467,549c44.2,0,80.1-35.9,80.1-80.1
	c0-44.2-35.9-80.1-80.1-80.1c-44.2,0-80.1,35.9-80.1,80.1c0,13.8,3.5,26.8,9.7,38.1c-24.9,11.3-51.3,17.5-78.8,18.8v-33.9
	c0-5.5-4.5-10-10-10c-5.5,0-10,4.5-10,10v33.9c-111.3-5.1-201-94.8-206.1-206.1h33.9c5.5,0,10-4.5,10-10s-4.5-10-10-10H91.7
	c5.1-111.3,94.8-201,206.1-206.1v33.9c0,5.5,4.5,10,10,10c5.5,0,10-4.5,10-10V93.5c106,4.9,192.4,86.4,204.8,190.4l-20.4-20.4
	c-3.9-3.9-10.3-3.9-14.2,0c-3.9,3.9-3.9,10.3,0,14.2l39.1,39.1c0,0,0,0,0.1,0.1c0.2,0.2,0.4,0.4,0.7,0.6c0.1,0.1,0.3,0.2,0.4,0.3
	c0.1,0.1,0.3,0.2,0.4,0.3c0.1,0.1,0.3,0.2,0.5,0.3c0.1,0.1,0.3,0.2,0.4,0.2c0.2,0.1,0.3,0.2,0.5,0.2c0.1,0.1,0.3,0.1,0.4,0.2
	c0.2,0.1,0.3,0.1,0.5,0.2c0.2,0.1,0.3,0.1,0.5,0.2c0.2,0,0.3,0.1,0.5,0.1c0.2,0,0.3,0.1,0.5,0.1c0.2,0,0.4,0.1,0.5,0.1
	c0.1,0,0.3,0,0.4,0.1c0.3,0,0.7,0,1,0s0.7,0,1,0c0.1,0,0.3,0,0.4-0.1c0.2,0,0.4,0,0.5-0.1c0.2,0,0.3-0.1,0.5-0.1
	c0.2,0,0.3-0.1,0.5-0.1c0.2,0,0.3-0.1,0.5-0.2c0.2-0.1,0.3-0.1,0.5-0.2c0.1-0.1,0.3-0.1,0.4-0.2c0.2-0.1,0.3-0.1,0.5-0.2
	c0.1-0.1,0.3-0.2,0.4-0.2c0.2-0.1,0.3-0.2,0.5-0.3c0.1-0.1,0.3-0.2,0.4-0.3c0.1-0.1,0.3-0.2,0.4-0.3c0.2-0.2,0.5-0.4,0.7-0.6
	c0,0,0,0,0.1-0.1l39.1-39.1c3.9-3.9,3.9-10.3,0-14.2c-3.9-3.9-10.3-3.9-14.2,0l-23,23c-5.2-54.4-29-104.9-68.1-144.1
	c-44.7-44.7-104-69.3-167.2-69.3s-122.5,24.6-167.2,69.3c-44.7,44.7-69.3,104-69.3,167.2s24.6,122.5,69.3,167.2
	C185.3,521.5,244.6,546.1,307.8,546.1z M467,408.9c33.1,0,60,26.9,60,60c0,33.1-26.9,60-60,60c-33.1,0-60-26.9-60-60
	C407,435.8,433.9,408.9,467,408.9z"/>
<path class="st2" d="M301.3,265.4c0-26-21.1-47.1-47.1-47.1s-47.1,21.1-47.1,47.1c0,5.5,4.5,10,10,10c5.5,0,10-4.5,10-10
	c0-14.9,12.1-27,27-27c14.9,0,27,12.1,27,27c0,23.4-44,85.5-71.8,119.3c-2.5,3-3,7.2-1.3,10.7c1.7,3.5,5.2,5.8,9.1,5.8h74.1
	c5.5,0,10-4.5,10-10c0-5.5-4.5-10-10-10H238c6.9-8.9,15.7-20.8,24.6-33.7C288.6,309.3,301.3,282.5,301.3,265.4z"/>
<path class="st2" d="M398.4,401c5.5,0,10-4.5,10-10v-81.1v-81.6c0-4.1-2.6-7.9-6.4-9.4c-3.9-1.5-8.3-0.5-11,2.6l-74.1,81.6
	c-2.7,2.9-3.4,7.2-1.7,10.8c1.6,3.6,5.2,6,9.2,6h64v71C388.3,396.5,392.8,401,398.4,401z M388.3,254.3v45.5H347L388.3,254.3z"/>
<path class="st2" d="M454.1,452.5h11.6l-13.8,39.4c-1.8,5.2,0.9,11,6.1,12.8c1.1,0.4,2.2,0.6,3.3,0.6c4.1,0,8-2.6,9.5-6.7l18.5-52.8
	c1.1-3.1,0.6-6.5-1.3-9.1c-1.9-2.7-4.9-4.2-8.2-4.2h-25.8c-5.5,0-10,4.5-10,10S448.6,452.5,454.1,452.5z"/>
<path class="st2" d="M533.1,335.1c-12.9,0-12.9,20.1,0,20.1C546,355.2,546,335.1,533.1,335.1z"/>
<path class="st2" d="M525.6,372.8c-12.9,0-12.9,20.1,0,20.1C538.5,392.9,538.5,372.8,525.6,372.8z"/>
<path class="st2" d="M460.5,244.1c1.6,3.8,5.3,6.1,9.2,6.1c1.3,0,2.7-0.3,4-0.8c5.1-2.2,7.4-8.1,5.3-13.2
	c-15.3-35.6-42.1-66.3-75.4-86.3c-4.8-2.9-10.9-1.3-13.8,3.4c-2.9,4.8-1.3,10.9,3.4,13.8C423,185,446.9,212.3,460.5,244.1z"/>
<path class="st2" d="M366.3,133.2c-12.9,0-12.9,20.1,0,20.1C379.2,153.3,379.2,133.2,366.3,133.2z"/>
</svg>
