<?xml version="1.0" encoding="utf-8"?>
<!-- Generator: Adobe Illustrator 21.1.0, SVG Export Plug-In . SVG Version: 6.00 Build 0)  -->
<svg version="1.1" id="Layer_1" xmlns="http://www.w3.org/2000/svg" xmlns:xlink="http://www.w3.org/1999/xlink" x="0px" y="0px"
	 viewBox="0 0 1366 768" style="enable-background:new 0 0 1366 768;" xml:space="preserve">
<style type="text/css">
	.st0{fill:#7B84B2;}
</style>
<g>
	<path class="st0" d="M487,383.8c0,108,87.8,195.8,195.8,195.8s195.8-87.8,195.8-195.8S790.8,188,682.8,188S487,275.8,487,383.8
		L487,383.8z M862.8,383.8c0,99.3-80.7,180-180,180s-180-80.7-180-180s80.7-180,180-180S862.8,284.6,862.8,383.8L862.8,383.8z"/>
	<path class="st0" d="M617.8,356c-1.5,1.5-2.3,3.6-2.3,5.6s0.8,4.1,2.3,5.6l59.4,59.4c1.5,1.5,3.5,2.3,5.6,2.3
		c2.1,0,4.1-0.8,5.6-2.3l59.4-59.4c3.1-3.1,3.1-8.1,0-11.2s-8.1-3.1-11.2,0l-53.8,53.8L629,356C625.9,353,620.8,353,617.8,356
		L617.8,356z"/>
</g>
</svg>
