<svg xmlns="http://www.w3.org/2000/svg" viewBox="-49 141 512 512">
    <path fill="#ffd791" d="M446.841 567.519l-14.331-77.627a8.015 8.015 0 0 0-6.309-6.404l-112.704-22.541a8.015 8.015 0 0 0-7.238 2.192l-49.629 49.629c-83.92-36.532-128.96-81.617-168.915-169.07l49.553-49.552a8.014 8.014 0 0 0 2.192-7.238l-22.541-112.702a8.014 8.014 0 0 0-6.404-6.309l-77.627-14.331a8.023 8.023 0 0 0-3.23.066 103.355 103.355 0 0 0-50.237 27.748c-23.911 23.911-32.992 59.161-26.263 101.939C-35.048 358.3 1.608 462.567 69.12 530.347l.463.475c.122.122.245.241.369.36l.119.114c67.768 67.501 172.034 104.156 247.015 115.951 9.167 1.442 17.982 2.158 26.42 2.158 30.939 0 56.732-9.634 75.52-28.422a103.354 103.354 0 0 0 27.75-50.237 8.044 8.044 0 0 0 .065-3.227z"/>
    <path fill="#ffc44f" d="M87.715 343.699L29.658 153.632a103.355 103.355 0 0 0-50.237 27.748c-23.911 23.911-32.992 59.161-26.263 101.939C-35.048 358.3 1.608 462.567 69.12 530.347l.463.475c.122.122.245.241.369.36l.119.114c67.768 67.501 172.034 104.156 247.015 115.951 9.167 1.442 17.982 2.158 26.42 2.158 30.939 0 56.732-9.634 75.52-28.422a103.354 103.354 0 0 0 27.75-50.237l-190.144-57.98c-83.921-36.529-128.962-81.615-168.917-169.067z"/>
    <path fill="#ffb357" d="M359.732 632.355c-8.438 0-17.253-.715-26.42-2.158-74.981-11.796-179.247-48.451-247.015-115.951l-.119-.114c-.123-.119-.247-.237-.369-.36l-.463-.475C17.833 445.515-18.821 341.249-30.616 266.268c-5.805-36.901.166-68.193 17.262-91.445a103.68 103.68 0 0 0-7.224 6.558c-23.912 23.911-32.993 59.161-26.264 101.939C-35.048 358.3 1.608 462.567 69.12 530.347l.463.475c.122.122.245.241.369.36l.119.114c67.768 67.501 172.034 104.156 247.015 115.951 9.167 1.442 17.982 2.158 26.42 2.158 30.939 0 56.732-9.634 75.52-28.422 3.48-3.48 6.69-7.185 9.617-11.084-18.054 14.848-41.449 22.456-68.911 22.456z"/>
    <path fill="#b0db51" d="M318.758 144.594c-79.535 0-144.242 53.922-144.242 120.201 0 35.814 18.535 68.94 51.116 91.831l-26.338 57.066c-1.368 2.964-.763 6.56 1.501 8.912 2.491 2.589 6.523 3.198 9.667 1.451l75.812-42.118a173.078 173.078 0 0 0 32.484 3.059c79.535 0 144.242-53.922 144.242-120.201s-64.706-120.201-144.242-120.201z"/>
    <path fill="#9cc445" d="M224.835 414.607c-2.263-2.352-2.868-5.948-1.5-8.912l26.338-57.066c-32.581-22.892-51.116-56.017-51.116-91.831 0-46.756 32.204-87.359 79.097-107.225-59.572 14.785-103.137 60.839-103.137 115.221 0 35.814 18.535 68.94 51.116 91.831l-26.338 57.066c-1.368 2.964-.763 6.56 1.501 8.911 2.491 2.589 6.523 3.198 9.667 1.451l15.4-8.555a7.523 7.523 0 0 1-1.028-.891z"/>
    <g fill="#f3f1f1">
        <path d="M334.785 240.755h-32.054a8.014 8.014 0 0 0-8.013 8.013v88.148a8.014 8.014 0 0 0 8.013 8.013h32.054a8.014 8.014 0 0 0 8.013-8.013v-88.148a8.011 8.011 0 0 0-8.013-8.013zM318.758 184.661c-13.256 0-24.04 10.784-24.04 24.04s10.784 24.04 24.04 24.04 24.04-10.784 24.04-24.04c.001-13.256-10.784-24.04-24.04-24.04z"/>
    </g>
</svg>
