<?xml version="1.0" encoding="utf-8"?>
<!-- Generator: Adobe Illustrator 21.1.0, SVG Export Plug-In . SVG Version: 6.00 Build 0)  -->
<svg version="1.1" id="Capa_1" xmlns="http://www.w3.org/2000/svg" xmlns:xlink="http://www.w3.org/1999/xlink" x="0px" y="0px"
	 viewBox="0 0 512 512" style="enable-background:new 0 0 512 512;" xml:space="preserve">
<style type="text/css">
	.st0{fill:#DBDBDB;}
	.st1{fill:#C9C9C9;}
	.st2{fill:#C0C0C0;}
	.st3{fill:#BFBFBF;}
	.st4{fill:#AAAAAA;}
	.st5{fill:#F2F2F2;}
</style>
<path class="st0" d="M495.8,426.5l-14.3-77.6c-0.6-3.2-3.1-5.8-6.3-6.4l-112.7-22.5c-2.6-0.5-5.3,0.3-7.2,2.2l-49.6,49.6
	c-83.9-36.5-129-81.6-168.9-169.1l49.6-49.6c1.9-1.9,2.7-4.6,2.2-7.2L165.9,33.2c-0.6-3.2-3.2-5.7-6.4-6.3L81.9,12.6
	c-1.1-0.2-2.2-0.2-3.2,0.1c-19,4.3-36.4,13.9-50.2,27.7C4.5,64.3-4.6,99.5,2.2,142.3c11.8,75,48.4,179.2,116,247l0.5,0.5
	c0.1,0.1,0.2,0.2,0.4,0.4l0.1,0.1c67.8,67.5,172,104.2,247,116c9.2,1.4,18,2.2,26.4,2.2c30.9,0,56.7-9.6,75.5-28.4
	c13.8-13.8,23.4-31.2,27.8-50.2C496,428.7,496,427.6,495.8,426.5z"/>
<path class="st1" d="M136.7,202.7L78.7,12.6c-19,4.3-36.4,13.9-50.2,27.7C4.5,64.3-4.6,99.5,2.2,142.3c11.8,75,48.5,179.2,116,247
	l0.5,0.5c0.1,0.1,0.2,0.2,0.4,0.4l0.1,0.1c67.8,67.5,172,104.2,247,116c9.2,1.4,18,2.2,26.4,2.2c30.9,0,56.7-9.6,75.5-28.4
	c13.8-13.8,23.4-31.2,27.8-50.2l-190.1-58C221.7,335.2,176.7,290.2,136.7,202.7z"/>
<path class="st2" d="M408.7,491.4c-8.4,0-17.3-0.7-26.4-2.2c-75-11.8-179.2-48.5-247-116l-0.1-0.1c-0.1-0.1-0.2-0.2-0.4-0.4
	l-0.5-0.5c-67.5-67.8-104.2-172-116-247c-5.8-36.9,0.2-68.2,17.3-91.4c-2.5,2.1-4.9,4.2-7.2,6.6C4.5,64.3-4.6,99.5,2.2,142.3
	c11.8,75,48.5,179.2,116,247l0.5,0.5c0.1,0.1,0.2,0.2,0.4,0.4l0.1,0.1c67.8,67.5,172,104.2,247,116c9.2,1.4,18,2.2,26.4,2.2
	c30.9,0,56.7-9.6,75.5-28.4c3.5-3.5,6.7-7.2,9.6-11.1C459.6,483.7,436.2,491.4,408.7,491.4z"/>
<path class="st3" d="M367.8,3.6c-79.5,0-144.2,53.9-144.2,120.2c0,35.8,18.5,68.9,51.1,91.8l-26.3,57.1c-1.4,3-0.8,6.6,1.5,8.9
	c2.5,2.6,6.5,3.2,9.7,1.5l75.8-42.1c10.6,2,21.5,3.1,32.5,3.1c79.5,0,144.2-53.9,144.2-120.2S447.3,3.6,367.8,3.6z"/>
<path class="st4" d="M273.8,273.6c-2.3-2.4-2.9-5.9-1.5-8.9l26.3-57.1c-32.6-22.9-51.1-56-51.1-91.8c0-46.8,32.2-87.4,79.1-107.2
	c-59.6,14.8-103.1,60.8-103.1,115.2c0,35.8,18.5,68.9,51.1,91.8l-26.3,57.1c-1.4,3-0.8,6.6,1.5,8.9c2.5,2.6,6.5,3.2,9.7,1.5
	l15.4-8.6C274.5,274.2,274.2,273.9,273.8,273.6z"/>
<g>
	<path class="st5" d="M383.8,99.8h-32.1c-4.4,0-8,3.6-8,8v88.1c0,4.4,3.6,8,8,8h32.1c4.4,0,8-3.6,8-8v-88.1
		C391.8,103.3,388.2,99.8,383.8,99.8z"/>
	<path class="st5" d="M367.8,43.7c-13.3,0-24,10.8-24,24s10.8,24,24,24s24-10.8,24-24C391.8,54.4,381,43.7,367.8,43.7z"/>
</g>
</svg>
