<svg xmlns="http://www.w3.org/2000/svg" viewBox="-49 141 512 512">
    <path fill="#665cac" d="M258.207 141H155.794C56.97 141-23.429 221.398-23.429 320.223v76.81c0 69.381 40.014 132.344 102.413 161.961v85.537c0 7.427 9.291 11.31 14.569 6.035l74.309-74.31h90.344c98.824 0 179.223-80.398 179.223-179.223v-76.81C437.43 221.398 357.03 141 258.207 141z"/>
    <path fill="#523494" d="M104.588 558.993c-62.4-29.617-102.413-92.58-102.413-161.96v-76.81C2.175 221.398 82.573 141 181.397 141h-25.603C56.97 141-23.429 221.398-23.429 320.223v76.81c0 69.381 40.014 132.344 102.413 161.961v85.537c0 7.427 9.291 11.31 14.569 6.035l11.034-11.034v-80.539z"/>
    <path fill="#fff" d="M335.85 459.101l-7.673-41.566a8.536 8.536 0 0 0-6.719-6.82l-60.347-12.069a8.542 8.542 0 0 0-7.71 2.334l-24.517 24.518c-41.308-18.509-64.234-41.485-84.406-84.566l24.438-24.437a8.541 8.541 0 0 0 2.334-7.71l-12.069-60.348a8.536 8.536 0 0 0-6.82-6.719l-41.566-7.672a8.554 8.554 0 0 0-3.44.07 59.554 59.554 0 0 0-28.96 15.996c-13.802 13.802-19.077 33.942-15.253 58.243 6.419 40.806 26.411 97.594 63.296 134.627l.504.5c37.004 36.859 93.793 56.853 134.601 63.273 5.141.81 10.092 1.211 14.84 1.211 17.695 0 32.52-5.582 43.405-16.465a59.57 59.57 0 0 0 15.995-28.959 8.595 8.595 0 0 0 .067-3.441z"/>
    <g fill="#e5e5e5">
        <path d="M160.571 324.839l8.345-8.345.008-.009-8.354 8.353zM244.976 409.395l8.426-8.426.001.001-8.426 8.426z"/>
        <path d="M292.474 491.871c-4.748 0-9.699-.401-14.84-1.211-40.807-6.42-97.596-26.414-134.601-63.273l-.504-.5c-36.885-37.033-56.877-93.821-63.296-134.627-3.089-19.633-.233-36.548 8.256-49.601a59.76 59.76 0 0 0-9.097 7.452c-13.802 13.802-19.077 33.942-15.253 58.243 6.419 40.806 26.411 97.594 63.296 134.627l.504.5c37.004 36.859 93.793 56.853 134.601 63.273 5.141.81 10.092 1.211 14.84 1.211 17.695 0 32.52-5.581 43.405-16.465a59.805 59.805 0 0 0 7.451-9.096c-9.638 6.268-21.378 9.467-34.762 9.467z"/>
    </g>
    <g fill="#fff">
        <path d="M224.069 286.085a8.534 8.534 0 0 0 0 17.068c18.824 0 34.138 15.314 34.138 34.138 0 4.65 3.884 8.534 8.534 8.534s8.534-3.884 8.534-8.534c.001-28.236-22.97-51.206-51.206-51.206z"/>
        <path d="M224.069 251.947c-3.157 0-6.343.175-9.471.52a8.535 8.535 0 0 0-7.547 9.42c.517 4.685 4.743 8.056 9.42 7.547a69.48 69.48 0 0 1 7.598-.418c37.647 0 68.275 30.628 68.275 68.275 0 2.535-.141 5.091-.418 7.599-.51 4.621 2.924 8.911 7.547 9.42 4.622.509 8.909-2.924 9.42-7.547.345-3.128.52-6.314.52-9.472.001-47.058-38.285-85.344-85.344-85.344z"/>
        <path d="M224.069 217.81c-3.05 0-6.139.116-9.179.347a8.536 8.536 0 0 0-7.866 9.155c.355 4.7 4.469 8.222 9.155 7.866 2.613-.199 5.268-.299 7.89-.299 56.471 0 102.413 45.942 102.413 102.413 0 7.99-.922 15.944-2.74 23.64-1.043 4.41 1.673 8.994 6.046 10.192 4.601 1.26 9.469-1.625 10.565-6.266a120.027 120.027 0 0 0 3.198-27.566c0-65.883-53.599-119.482-119.482-119.482z"/>
    </g>
</svg>
