<?xml version="1.0" encoding="utf-8"?>
<!-- Generator: Adobe Illustrator 21.1.0, SVG Export Plug-In . SVG Version: 6.00 Build 0)  -->
<svg version="1.1" id="Capa_1" xmlns="http://www.w3.org/2000/svg" xmlns:xlink="http://www.w3.org/1999/xlink" x="0px" y="0px"
	 viewBox="0 0 512 512" style="enable-background:new 0 0 512 512;" xml:space="preserve">
<style type="text/css">
	.st0{fill:#C0C0C0;}
	.st1{fill:#F2F2F2;}
	.st2{fill:#E4E4E4;}
	.st3{fill:#C9C9C9;}
	.st4{fill:#DBDBDB;}
	.st5{fill:#AAAAAA;}
</style>
<path class="st0" d="M504,510.8H8c-4.4,0-8-3.6-8-8v-288L250.8,3.1c3-2.5,7.3-2.5,10.3,0L512,214.8v288
	C512,507.2,508.4,510.8,504,510.8z"/>
<path class="st1" d="M472,38.8H40c-4.4,0-8,3.6-8,8v424c0,4.4,3.6,8,8,8h432c4.4,0,8-3.6,8-8v-424C480,42.3,476.4,38.8,472,38.8z"/>
<path class="st2" d="M256,342.8L32,211.5v259.3c0,4.4,3.6,8,8,8h432c4.4,0,8-3.6,8-8V211.5L256,342.8z"/>
<path class="st3" d="M3,509c1.4,1.1,3.1,1.7,5,1.7h496c4.4,0,8-3.6,8-8v-288L3,509z"/>
<path class="st0" d="M272,353.5L3,509c1.4,1.1,3.1,1.7,5,1.7h496c4.4,0,8-3.6,8-8v-10.5L272,353.5z"/>
<path class="st4" d="M0,214.8v288c0,4.4,3.6,8,8,8h496c1.9,0,3.6-0.7,5-1.7L0,214.8z"/>
<path class="st5" d="M343.2,97.8c-22.5-20-53.5-31-87.2-31c-68.6,0-124.4,56-124,124.7c0.4,68.4,56.9,123.3,125.4,123.3h2.6
	c4.4,0,8-3.6,8-8v-8c0-4.4-3.6-8-8-8h-2.9c-55.2,0-100.8-44.2-101.1-99.4c-0.3-55.4,44.7-100.6,100-100.6c58.9,0,100,37.8,100,92
	c0,43.7-30.3,55.6-48,58.8V130.8c0-4.4-3.6-8-8-8h-8c-4.4,0-8,3.6-8,8v9.5c-8.1-6-17.7-9.5-28-9.5c-28.7,0-52,26.9-52,60
	s23.3,60,52,60c10.3,0,19.9-3.5,28-9.5v13.5c0,6.6,5.4,12,12,12c4.4,0,27.3-0.7,48.4-13.8c16.3-10.2,35.6-30.6,35.6-70.2
	C380,149.1,366.9,118.9,343.2,97.8z M256,226.8c-15.4,0-28-16.1-28-36s12.6-36,28-36s28,16.1,28,36S271.4,226.8,256,226.8z"/>
</svg>
