<svg xmlns="http://www.w3.org/2000/svg" viewBox="0 0 1366 768">
    <g fill="#3db76b">
        <path d="M746.668 322.031l-82.606 84.141-42.324-42.496-22.699 22.699 66.731 66.559 107.179-103.938-26.281-26.965zm0 0"/>
        <path d="M682.668 214C588.41 214 512 290.41 512 384.668c0 94.254 76.41 170.664 170.668 170.664 94.254 0 170.664-76.41 170.664-170.664 0-94.258-76.41-170.668-170.664-170.668zm0 310.442c-77.199 0-139.777-62.579-139.777-139.774 0-77.199 62.578-139.777 139.777-139.777 77.156.094 139.68 62.617 139.773 139.777 0 77.195-62.578 139.774-139.773 139.774zm0 0"/>
    </g>
</svg>
