<svg xmlns="http://www.w3.org/2000/svg" viewBox="0 0 1366 768">
    <path fill="#00aff0" d="M792.348 409.289a108.976 108.976 0 0 0 2.562-23.524c0-60.527-49.758-109.609-111.152-109.609-6.473 0-12.824.555-19 1.602-9.934-6.176-21.692-9.758-34.289-9.758C594.855 268 566 296.461 566 331.578c0 11.726 3.242 22.711 8.855 32.156a108.367 108.367 0 0 0-2.25 22.031c0 60.551 49.758 107.801 111.145 107.801 6.957 0 13.758-.633 20.352-1.832 9.078 4.805 19.453 9.356 30.476 9.356 35.61 0 64.461-28.453 64.461-63.571a62.634 62.634 0 0 0-6.691-28.23zm0 0"/>
    <path fill="#fff" d="M734.453 430.504c-4.289 6.097-10.566 10.89-18.832 14.332-8.266 3.476-18.055 5.195-29.379 5.195-13.582 0-24.785-2.359-33.617-7.086-6.25-3.394-11.34-7.941-15.258-13.605-3.906-5.668-5.863-11.188-5.863-16.555 0-3.102 1.172-5.77 3.516-7.977 2.347-2.234 5.339-3.336 8.96-3.336 2.942 0 5.438.856 7.465 2.594 2.039 1.727 3.778 4.281 5.207 7.684 1.754 4.043 3.641 7.414 5.688 10.117 2.023 2.699 4.894 4.945 8.578 6.699 3.699 1.742 8.559 2.629 14.559 2.629 8.257 0 14.972-1.762 20.144-5.308 5.156-3.532 7.75-7.969 7.75-13.262 0-4.196-1.398-7.629-4.18-10.227-2.793-2.621-6.39-4.625-10.8-6-4.411-1.394-10.309-2.863-17.707-4.414-9.883-2.121-18.164-4.625-24.821-7.465-6.664-2.863-11.965-6.746-15.867-11.66-3.922-4.937-5.871-11.055-5.871-18.359 0-6.977 2.059-13.16 6.195-18.574 4.133-5.418 10.094-9.575 17.934-12.489 7.82-2.914 17.027-4.363 27.594-4.363 8.449 0 15.757.969 21.929 2.883 6.168 1.937 11.274 4.504 15.336 7.699 4.071 3.199 7.051 6.547 8.922 10.066 1.879 3.497 2.82 6.946 2.82 10.27 0 3.051-1.167 5.816-3.511 8.258-2.344 2.445-5.274 3.676-8.778 3.676-3.195 0-5.621-.743-7.281-2.204-1.66-1.472-3.461-3.875-5.39-7.218-2.512-4.778-5.504-8.508-9.016-11.18-3.512-2.68-9.133-4.02-16.899-4.02-7.187 0-13 1.442-17.414 4.364-4.41 2.898-6.625 6.406-6.625 10.492 0 2.519.766 4.719 2.258 6.562 1.492 1.856 3.563 3.422 6.203 4.743a44.936 44.936 0 0 0 7.969 3.125c2.688.75 7.137 1.832 13.34 3.277 7.75 1.668 14.777 3.516 21.07 5.527 6.285 2.016 11.649 4.473 16.059 7.332 4.406 2.883 7.859 6.539 10.328 10.953 2.469 4.399 3.715 9.797 3.715 16.192.004 7.648-2.153 14.531-6.43 20.633zm0 0"/>
</svg>
