<svg xmlns="http://www.w3.org/2000/svg" viewBox="-49 141 512 512">
    <path fill="#ffb357" d="M455 651.766H-41a8 8 0 0 1-8-8v-288l250.841-211.647a8 8 0 0 1 10.318 0L463 355.766v288a8 8 0 0 1-8 8z"/>
    <path fill="#f3f1f1" d="M423 179.766H-9a8 8 0 0 0-8 8v424a8 8 0 0 0 8 8h432a8 8 0 0 0 8-8v-424a8 8 0 0 0-8-8z"/>
    <path fill="#e6e3e2" d="M207 483.766l-224-131.31v259.31a8 8 0 0 0 8 8h432a8 8 0 0 0 8-8v-259.31l-224 131.31z"/>
    <path fill="#ffc44f" d="M-45.98 650.021a7.96 7.96 0 0 0 4.98 1.746h496a8 8 0 0 0 8-8v-288L-45.98 650.021z"/>
    <path fill="#ffb357" d="M222.984 494.526L-45.98 650.021a7.96 7.96 0 0 0 4.98 1.746h496a8 8 0 0 0 8-8v-10.482L222.984 494.526z"/>
    <path fill="#ffd791" d="M-49 355.766v288a8 8 0 0 0 8 8h496a7.96 7.96 0 0 0 4.98-1.746L-49 355.766z"/>
    <path fill="#9cc445" d="M294.164 238.794c-22.529-20.009-53.485-31.028-87.164-31.028-68.615 0-124.392 56.019-123.998 124.724.393 68.424 56.937 123.276 125.362 123.276H211a8 8 0 0 0 8-8v-8a8 8 0 0 0-8-8h-2.9c-55.181 0-100.781-44.235-101.098-99.416-.319-55.406 44.663-100.584 99.998-100.584 58.879 0 100 37.832 100 92 0 43.709-30.257 55.603-48 58.819V271.766a8 8 0 0 0-8-8h-8a8 8 0 0 0-8 8v9.481c-8.089-5.99-17.695-9.481-28-9.481-28.673 0-52 26.916-52 60s23.327 60 52 60c10.305 0 19.911-3.491 28-9.481v13.481c0 6.627 5.373 12 12 12 4.382 0 27.308-.667 48.36-13.824C311.619 383.78 331 363.357 331 323.766c0-33.699-13.082-63.876-36.836-84.972zM207 367.766c-15.439 0-28-16.149-28-36s12.561-36 28-36 28 16.149 28 36-12.561 36-28 36z"/>
</svg>
