<?xml version="1.0" encoding="iso-8859-1"?>
<!-- Generator: Adobe Illustrator 21.1.0, SVG Export Plug-In . SVG Version: 6.00 Build 0)  -->
<svg version="1.1" id="Layer_1" xmlns="http://www.w3.org/2000/svg" xmlns:xlink="http://www.w3.org/1999/xlink" x="0px" y="0px"
	 viewBox="0 0 1366 768" style="enable-background:new 0 0 1366 768;" xml:space="preserve">
<g>
	<path style="fill:#7B84B2;" d="M682.84,579.68c108,0,195.84-87.84,195.84-195.84S790.84,188,682.84,188S487,275.84,487,383.84
		S574.84,579.68,682.84,579.68L682.84,579.68z M682.84,203.84c99.281,0,180,80.719,180,180s-80.719,180-180,180s-180-80.719-180-180
		S583.559,203.84,682.84,203.84L682.84,203.84z M682.84,203.84"/>
	<path style="fill:#7B84B2;" d="M655,448.879c1.52,1.519,3.602,2.32,5.602,2.32s4.078-0.801,5.597-2.32l59.442-59.438
		c1.519-1.519,2.32-3.519,2.32-5.601c0-2.078-0.801-4.078-2.32-5.602l-59.442-59.437c-3.121-3.121-8.078-3.121-11.199,0
		c-3.121,3.121-3.121,8.078,0,11.199l53.84,53.84L655,437.68C651.961,440.801,651.961,445.84,655,448.879L655,448.879z M655,448.879
		"/>
</g>
</svg>
