<?xml version="1.0" encoding="utf-8"?>
<!-- Generator: Adobe Illustrator 21.1.0, SVG Export Plug-In . SVG Version: 6.00 Build 0)  -->
<svg version="1.1" id="Layer_1" xmlns="http://www.w3.org/2000/svg" xmlns:xlink="http://www.w3.org/1999/xlink" x="0px" y="0px"
	 viewBox="0 0 1366 768" style="enable-background:new 0 0 1366 768;" xml:space="preserve">
<style type="text/css">
	.st0{clip-path:url(#SVGID_2_);fill:#FFFFFF;}
</style>
<g>
	<g>
		<defs>
			<rect id="SVGID_1_" x="670" y="375" width="25.9" height="18"/>
		</defs>
		<clipPath id="SVGID_2_">
			<use xlink:href="#SVGID_1_"  style="overflow:visible;"/>
		</clipPath>
		<path class="st0" d="M687,375.3c-0.3-0.4-0.9-0.4-1.3,0c-0.3,0.3-0.3,0.9,0,1.3l6.4,6.4h-21.2c-0.5,0-0.9,0.4-0.9,0.9
			c0,0.5,0.4,0.9,0.9,0.9h21.2l-6.4,6.4c-0.3,0.4-0.3,0.9,0,1.3c0.4,0.4,0.9,0.4,1.3,0l8-8c0.4-0.3,0.4-0.9,0-1.3L687,375.3z
			 M687,375.3"/>
	</g>
</g>
</svg>
