<?xml version="1.0" encoding="utf-8"?>
<!-- Generator: Adobe Illustrator 22.1.0, SVG Export Plug-In . SVG Version: 6.00 Build 0)  -->
<svg version="1.1" id="Слой_1" xmlns="http://www.w3.org/2000/svg" xmlns:xlink="http://www.w3.org/1999/xlink" x="0px" y="0px"
	 viewBox="0 0 92.5 93.9" style="enable-background:new 0 0 92.5 93.9;" xml:space="preserve">
<style type="text/css">
	.st0{fill:#ECF2FF;}
</style>
<g>
	<path class="st0" d="M36.7,80.5c2.6-4.5,5.2-8.9,7.7-13.2c1.8,0.5,3.5,1,5.2,1.4c12.2,2.3,24.1-5.4,27-17.5
		c0.5-2.2,0.5-2.2,2.8-2.2c4,0,7.9,0,11.9,0c1,0,1.4,0.3,1.2,1.3c-1,7.2-3.5,13.7-8,19.4c-0.7,0.9-1.4,1.6-2.1,2.5
		c-0.5,0.7-1,0.7-1.8,0.4c-8.2-3.6-17.6,1.6-18.9,10.4c-0.1,0.4-0.6,1-1,1.1c-8.2,1.4-16.1,0.4-23.6-3.1C37,80.8,37,80.7,36.7,80.5z
		"/>
	<path class="st0" d="M31,14.3c1.2,2.1,2.4,4.1,3.5,6c1.3,2.2,2.5,4.4,3.8,6.5c0.4,0.7,0.3,1.1-0.2,1.6c-5.5,5.2-8.1,11.6-7.5,19.2
		c0.5,5.8,2.8,10.8,7.1,14.8c0.9,0.9,1,1.4,0.3,2.5c-2.4,4-4.7,8-7.2,12.2c-1.5-1.4-3.1-2.6-4.4-3.9c-4.1-4-7-8.8-9.1-14.1
		c-0.3-0.9-0.2-1.4,0.6-2c6.6-5.5,6.4-15.8-0.4-21.1c-0.8-0.6-1-1.2-0.7-2.1c2.5-7.5,6.8-13.8,13-18.7C30.1,14.9,30.5,14.7,31,14.3z
		"/>
	<path class="st0" d="M36.8,10.8C44.7,7,52.8,6.1,61.3,7.6c-0.2,5.8,1.9,10.4,6.9,13.3c5,2.8,9.9,2.4,14.9-0.8
		c1.3,1.8,2.6,3.6,3.8,5.4c3,4.8,4.7,10,5.5,15.6c0.1,0.8,0,1.3-1,1.3c-4.5-0.1-9-0.1-13.5-0.2c-0.6,0-1-0.2-1.1-0.9
		c-2.4-10-8.6-16.2-18.6-18.4c-4.1-0.9-8.2-0.5-12.1,0.9c-0.5,0.2-1,0.3-1.5,0.5C41.9,19.8,39.4,15.3,36.8,10.8z"/>
	<path class="st0" d="M74.9,18.1c-5.1,0-9-3.9-9-9c0-5,4-9.1,9-9.1c5,0,9.1,4.1,9.1,9.2C84,14.2,80,18.1,74.9,18.1z"/>
	<path class="st0" d="M75.1,93.9c-4.7,0.1-9.1-4.1-8.9-9.2c0.2-5,4.1-8.9,9.2-8.9c4.9,0,9,4.2,9,9.2C84.2,90,80.2,94,75.1,93.9z"/>
	<path class="st0" d="M18.1,46.7c0.3,4.6-3.8,9.1-9,9.1c-5.1-0.1-9.1-4-9.1-9c0-5,4.1-9.1,9.1-9.1C14.1,37.7,18.1,41.6,18.1,46.7z"
		/>
</g>
</svg>
